<mxfile host="app.diagrams.net" agent="Mozilla/5.0 (Windows NT 10.0; Win64; x64) AppleWebKit/537.36 (KHTML, like Gecko) Chrome/130.0.0.0 Safari/537.36" version="24.8.6">
  <diagram id="C5RBs43oDa-KdzZeNtuy" name="Page-1">
    <mxGraphModel dx="1674" dy="738" grid="1" gridSize="10" guides="1" tooltips="1" connect="1" arrows="1" fold="1" page="1" pageScale="1" pageWidth="827" pageHeight="1169" math="0" shadow="0">
      <root>
        <mxCell id="WIyWlLk6GJQsqaUBKTNV-0" />
        <mxCell id="WIyWlLk6GJQsqaUBKTNV-1" parent="WIyWlLk6GJQsqaUBKTNV-0" />
        <mxCell id="9Rtrq_ne1fXErQaXBdDn-0" value="" style="ellipse;whiteSpace=wrap;html=1;" vertex="1" parent="WIyWlLk6GJQsqaUBKTNV-1">
          <mxGeometry x="40" y="80" width="120" height="80" as="geometry" />
        </mxCell>
        <mxCell id="9Rtrq_ne1fXErQaXBdDn-1" value="INIT&amp;nbsp;" style="text;html=1;align=center;verticalAlign=middle;whiteSpace=wrap;rounded=0;" vertex="1" parent="WIyWlLk6GJQsqaUBKTNV-1">
          <mxGeometry x="70" y="105" width="60" height="30" as="geometry" />
        </mxCell>
        <mxCell id="9Rtrq_ne1fXErQaXBdDn-2" value="" style="endArrow=classic;html=1;rounded=0;exitX=1;exitY=0.5;exitDx=0;exitDy=0;shadow=0;" edge="1" parent="WIyWlLk6GJQsqaUBKTNV-1" source="9Rtrq_ne1fXErQaXBdDn-0">
          <mxGeometry width="50" height="50" relative="1" as="geometry">
            <mxPoint x="390" y="410" as="sourcePoint" />
            <mxPoint x="240" y="120" as="targetPoint" />
          </mxGeometry>
        </mxCell>
        <mxCell id="9Rtrq_ne1fXErQaXBdDn-10" value="" style="edgeStyle=orthogonalEdgeStyle;rounded=0;orthogonalLoop=1;jettySize=auto;html=1;" edge="1" parent="WIyWlLk6GJQsqaUBKTNV-1" source="9Rtrq_ne1fXErQaXBdDn-3" target="9Rtrq_ne1fXErQaXBdDn-9">
          <mxGeometry relative="1" as="geometry" />
        </mxCell>
        <mxCell id="9Rtrq_ne1fXErQaXBdDn-28" value="" style="edgeStyle=orthogonalEdgeStyle;rounded=0;orthogonalLoop=1;jettySize=auto;html=1;" edge="1" parent="WIyWlLk6GJQsqaUBKTNV-1" source="9Rtrq_ne1fXErQaXBdDn-37" target="9Rtrq_ne1fXErQaXBdDn-27">
          <mxGeometry relative="1" as="geometry" />
        </mxCell>
        <mxCell id="9Rtrq_ne1fXErQaXBdDn-3" value="" style="ellipse;whiteSpace=wrap;html=1;" vertex="1" parent="WIyWlLk6GJQsqaUBKTNV-1">
          <mxGeometry x="240" y="80" width="120" height="80" as="geometry" />
        </mxCell>
        <mxCell id="9Rtrq_ne1fXErQaXBdDn-7" value="MODE1" style="text;html=1;align=center;verticalAlign=middle;whiteSpace=wrap;rounded=0;" vertex="1" parent="WIyWlLk6GJQsqaUBKTNV-1">
          <mxGeometry x="270" y="105" width="60" height="30" as="geometry" />
        </mxCell>
        <mxCell id="9Rtrq_ne1fXErQaXBdDn-8" value="BUTTON1" style="text;html=1;align=center;verticalAlign=middle;whiteSpace=wrap;rounded=0;" vertex="1" parent="WIyWlLk6GJQsqaUBKTNV-1">
          <mxGeometry x="160" y="80" width="60" height="30" as="geometry" />
        </mxCell>
        <mxCell id="9Rtrq_ne1fXErQaXBdDn-13" value="" style="edgeStyle=orthogonalEdgeStyle;rounded=0;orthogonalLoop=1;jettySize=auto;html=1;" edge="1" parent="WIyWlLk6GJQsqaUBKTNV-1" source="9Rtrq_ne1fXErQaXBdDn-9" target="9Rtrq_ne1fXErQaXBdDn-12">
          <mxGeometry relative="1" as="geometry" />
        </mxCell>
        <mxCell id="9Rtrq_ne1fXErQaXBdDn-43" value="" style="edgeStyle=orthogonalEdgeStyle;rounded=0;orthogonalLoop=1;jettySize=auto;html=1;" edge="1" parent="WIyWlLk6GJQsqaUBKTNV-1" source="9Rtrq_ne1fXErQaXBdDn-9">
          <mxGeometry relative="1" as="geometry">
            <mxPoint x="560" y="390" as="targetPoint" />
          </mxGeometry>
        </mxCell>
        <mxCell id="9Rtrq_ne1fXErQaXBdDn-9" value="" style="ellipse;whiteSpace=wrap;html=1;" vertex="1" parent="WIyWlLk6GJQsqaUBKTNV-1">
          <mxGeometry x="440" y="80" width="120" height="80" as="geometry" />
        </mxCell>
        <mxCell id="9Rtrq_ne1fXErQaXBdDn-11" value="MODE2" style="text;html=1;align=center;verticalAlign=middle;whiteSpace=wrap;rounded=0;" vertex="1" parent="WIyWlLk6GJQsqaUBKTNV-1">
          <mxGeometry x="470" y="105" width="60" height="30" as="geometry" />
        </mxCell>
        <mxCell id="9Rtrq_ne1fXErQaXBdDn-20" value="" style="edgeStyle=orthogonalEdgeStyle;rounded=0;orthogonalLoop=1;jettySize=auto;html=1;" edge="1" parent="WIyWlLk6GJQsqaUBKTNV-1" source="9Rtrq_ne1fXErQaXBdDn-12" target="9Rtrq_ne1fXErQaXBdDn-19">
          <mxGeometry relative="1" as="geometry" />
        </mxCell>
        <mxCell id="9Rtrq_ne1fXErQaXBdDn-62" value="" style="edgeStyle=orthogonalEdgeStyle;rounded=0;orthogonalLoop=1;jettySize=auto;html=1;" edge="1" parent="WIyWlLk6GJQsqaUBKTNV-1" source="9Rtrq_ne1fXErQaXBdDn-12">
          <mxGeometry relative="1" as="geometry">
            <mxPoint x="797" y="390" as="targetPoint" />
          </mxGeometry>
        </mxCell>
        <mxCell id="9Rtrq_ne1fXErQaXBdDn-12" value="" style="ellipse;whiteSpace=wrap;html=1;" vertex="1" parent="WIyWlLk6GJQsqaUBKTNV-1">
          <mxGeometry x="640" y="80" width="120" height="80" as="geometry" />
        </mxCell>
        <mxCell id="9Rtrq_ne1fXErQaXBdDn-14" value="MODE3" style="text;html=1;align=center;verticalAlign=middle;whiteSpace=wrap;rounded=0;" vertex="1" parent="WIyWlLk6GJQsqaUBKTNV-1">
          <mxGeometry x="670" y="105" width="60" height="30" as="geometry" />
        </mxCell>
        <mxCell id="9Rtrq_ne1fXErQaXBdDn-77" value="" style="edgeStyle=orthogonalEdgeStyle;rounded=0;orthogonalLoop=1;jettySize=auto;html=1;" edge="1" parent="WIyWlLk6GJQsqaUBKTNV-1" source="9Rtrq_ne1fXErQaXBdDn-19" target="9Rtrq_ne1fXErQaXBdDn-76">
          <mxGeometry relative="1" as="geometry" />
        </mxCell>
        <mxCell id="9Rtrq_ne1fXErQaXBdDn-19" value="" style="ellipse;whiteSpace=wrap;html=1;" vertex="1" parent="WIyWlLk6GJQsqaUBKTNV-1">
          <mxGeometry x="840" y="80" width="120" height="80" as="geometry" />
        </mxCell>
        <mxCell id="9Rtrq_ne1fXErQaXBdDn-21" value="MODE4" style="text;html=1;align=center;verticalAlign=middle;whiteSpace=wrap;rounded=0;" vertex="1" parent="WIyWlLk6GJQsqaUBKTNV-1">
          <mxGeometry x="870" y="105" width="60" height="30" as="geometry" />
        </mxCell>
        <mxCell id="9Rtrq_ne1fXErQaXBdDn-22" value="" style="endArrow=classic;html=1;rounded=0;exitX=0.425;exitY=0;exitDx=0;exitDy=0;exitPerimeter=0;entryX=0.792;entryY=0.1;entryDx=0;entryDy=0;entryPerimeter=0;" edge="1" parent="WIyWlLk6GJQsqaUBKTNV-1" source="9Rtrq_ne1fXErQaXBdDn-19" target="9Rtrq_ne1fXErQaXBdDn-0">
          <mxGeometry width="50" height="50" relative="1" as="geometry">
            <mxPoint x="460" y="310" as="sourcePoint" />
            <mxPoint x="480" y="20" as="targetPoint" />
            <Array as="points">
              <mxPoint x="500" y="40" />
            </Array>
          </mxGeometry>
        </mxCell>
        <mxCell id="9Rtrq_ne1fXErQaXBdDn-23" value="BUTTON1" style="text;html=1;align=center;verticalAlign=middle;whiteSpace=wrap;rounded=0;" vertex="1" parent="WIyWlLk6GJQsqaUBKTNV-1">
          <mxGeometry x="160" y="80" width="60" height="30" as="geometry" />
        </mxCell>
        <mxCell id="9Rtrq_ne1fXErQaXBdDn-24" value="BUTTON1" style="text;html=1;align=center;verticalAlign=middle;whiteSpace=wrap;rounded=0;" vertex="1" parent="WIyWlLk6GJQsqaUBKTNV-1">
          <mxGeometry x="360" y="80" width="60" height="30" as="geometry" />
        </mxCell>
        <mxCell id="9Rtrq_ne1fXErQaXBdDn-25" value="BUTTON1" style="text;html=1;align=center;verticalAlign=middle;whiteSpace=wrap;rounded=0;" vertex="1" parent="WIyWlLk6GJQsqaUBKTNV-1">
          <mxGeometry x="570" y="80" width="60" height="30" as="geometry" />
        </mxCell>
        <mxCell id="9Rtrq_ne1fXErQaXBdDn-26" value="BUTTON1" style="text;html=1;align=center;verticalAlign=middle;whiteSpace=wrap;rounded=0;" vertex="1" parent="WIyWlLk6GJQsqaUBKTNV-1">
          <mxGeometry x="767" y="80" width="60" height="30" as="geometry" />
        </mxCell>
        <mxCell id="9Rtrq_ne1fXErQaXBdDn-31" value="" style="edgeStyle=orthogonalEdgeStyle;rounded=0;orthogonalLoop=1;jettySize=auto;html=1;" edge="1" parent="WIyWlLk6GJQsqaUBKTNV-1" source="9Rtrq_ne1fXErQaXBdDn-27" target="9Rtrq_ne1fXErQaXBdDn-30">
          <mxGeometry relative="1" as="geometry" />
        </mxCell>
        <mxCell id="9Rtrq_ne1fXErQaXBdDn-27" value="" style="ellipse;whiteSpace=wrap;html=1;" vertex="1" parent="WIyWlLk6GJQsqaUBKTNV-1">
          <mxGeometry x="294" y="210" width="120" height="80" as="geometry" />
        </mxCell>
        <mxCell id="9Rtrq_ne1fXErQaXBdDn-29" value="AUTO_RED" style="text;html=1;align=center;verticalAlign=middle;whiteSpace=wrap;rounded=0;" vertex="1" parent="WIyWlLk6GJQsqaUBKTNV-1">
          <mxGeometry x="324" y="235" width="60" height="30" as="geometry" />
        </mxCell>
        <mxCell id="9Rtrq_ne1fXErQaXBdDn-34" value="" style="edgeStyle=orthogonalEdgeStyle;rounded=0;orthogonalLoop=1;jettySize=auto;html=1;" edge="1" parent="WIyWlLk6GJQsqaUBKTNV-1" source="9Rtrq_ne1fXErQaXBdDn-30" target="9Rtrq_ne1fXErQaXBdDn-33">
          <mxGeometry relative="1" as="geometry" />
        </mxCell>
        <mxCell id="9Rtrq_ne1fXErQaXBdDn-30" value="" style="ellipse;whiteSpace=wrap;html=1;" vertex="1" parent="WIyWlLk6GJQsqaUBKTNV-1">
          <mxGeometry x="150" y="290" width="120" height="80" as="geometry" />
        </mxCell>
        <mxCell id="9Rtrq_ne1fXErQaXBdDn-32" value="AUTO&lt;div&gt;GREEN&lt;/div&gt;" style="text;html=1;align=center;verticalAlign=middle;whiteSpace=wrap;rounded=0;" vertex="1" parent="WIyWlLk6GJQsqaUBKTNV-1">
          <mxGeometry x="180" y="310" width="60" height="30" as="geometry" />
        </mxCell>
        <mxCell id="9Rtrq_ne1fXErQaXBdDn-33" value="" style="ellipse;whiteSpace=wrap;html=1;" vertex="1" parent="WIyWlLk6GJQsqaUBKTNV-1">
          <mxGeometry x="130" y="160" width="120" height="80" as="geometry" />
        </mxCell>
        <mxCell id="9Rtrq_ne1fXErQaXBdDn-35" value="AUTO_YELLOW" style="text;html=1;align=center;verticalAlign=middle;whiteSpace=wrap;rounded=0;" vertex="1" parent="WIyWlLk6GJQsqaUBKTNV-1">
          <mxGeometry x="160" y="185" width="60" height="30" as="geometry" />
        </mxCell>
        <mxCell id="9Rtrq_ne1fXErQaXBdDn-36" value="" style="endArrow=classic;html=1;rounded=0;exitX=1;exitY=0;exitDx=0;exitDy=0;" edge="1" parent="WIyWlLk6GJQsqaUBKTNV-1" source="9Rtrq_ne1fXErQaXBdDn-33" target="9Rtrq_ne1fXErQaXBdDn-3">
          <mxGeometry width="50" height="50" relative="1" as="geometry">
            <mxPoint x="460" y="310" as="sourcePoint" />
            <mxPoint x="510" y="260" as="targetPoint" />
          </mxGeometry>
        </mxCell>
        <mxCell id="9Rtrq_ne1fXErQaXBdDn-38" value="" style="edgeStyle=orthogonalEdgeStyle;rounded=0;orthogonalLoop=1;jettySize=auto;html=1;" edge="1" parent="WIyWlLk6GJQsqaUBKTNV-1" source="9Rtrq_ne1fXErQaXBdDn-3" target="9Rtrq_ne1fXErQaXBdDn-37">
          <mxGeometry relative="1" as="geometry">
            <mxPoint x="300" y="160" as="sourcePoint" />
            <mxPoint x="354" y="210" as="targetPoint" />
          </mxGeometry>
        </mxCell>
        <mxCell id="9Rtrq_ne1fXErQaXBdDn-37" value="timer7_flag =1 1" style="text;html=1;align=center;verticalAlign=middle;whiteSpace=wrap;rounded=0;" vertex="1" parent="WIyWlLk6GJQsqaUBKTNV-1">
          <mxGeometry x="324" y="160" width="60" height="30" as="geometry" />
        </mxCell>
        <mxCell id="9Rtrq_ne1fXErQaXBdDn-39" value="timer7_flag =1&amp;nbsp;" style="text;html=1;align=center;verticalAlign=middle;whiteSpace=wrap;rounded=0;" vertex="1" parent="WIyWlLk6GJQsqaUBKTNV-1">
          <mxGeometry x="300" y="300" width="60" height="30" as="geometry" />
        </mxCell>
        <mxCell id="9Rtrq_ne1fXErQaXBdDn-40" value="timer7_flag =1&amp;nbsp;" style="text;html=1;align=center;verticalAlign=middle;whiteSpace=wrap;rounded=0;" vertex="1" parent="WIyWlLk6GJQsqaUBKTNV-1">
          <mxGeometry x="140" y="250" width="60" height="30" as="geometry" />
        </mxCell>
        <mxCell id="9Rtrq_ne1fXErQaXBdDn-41" value="timer7_flag =1&amp;nbsp;" style="text;html=1;align=center;verticalAlign=middle;whiteSpace=wrap;rounded=0;" vertex="1" parent="WIyWlLk6GJQsqaUBKTNV-1">
          <mxGeometry x="190" y="130" width="60" height="30" as="geometry" />
        </mxCell>
        <mxCell id="9Rtrq_ne1fXErQaXBdDn-47" value="" style="curved=1;endArrow=classic;html=1;rounded=0;entryX=0.333;entryY=1;entryDx=0;entryDy=0;entryPerimeter=0;" edge="1" parent="WIyWlLk6GJQsqaUBKTNV-1" target="9Rtrq_ne1fXErQaXBdDn-9">
          <mxGeometry width="50" height="50" relative="1" as="geometry">
            <mxPoint x="543.9413681728342" y="391.4592836148022" as="sourcePoint" />
            <mxPoint x="510" y="260" as="targetPoint" />
            <Array as="points">
              <mxPoint x="510" y="310" />
              <mxPoint x="460" y="260" />
            </Array>
          </mxGeometry>
        </mxCell>
        <mxCell id="9Rtrq_ne1fXErQaXBdDn-54" value="" style="curved=1;endArrow=classic;html=1;rounded=0;exitX=0.042;exitY=0.3;exitDx=0;exitDy=0;exitPerimeter=0;entryX=0.192;entryY=0.95;entryDx=0;entryDy=0;entryPerimeter=0;" edge="1" parent="WIyWlLk6GJQsqaUBKTNV-1" target="9Rtrq_ne1fXErQaXBdDn-9">
          <mxGeometry width="50" height="50" relative="1" as="geometry">
            <mxPoint x="505.03999999999996" y="574" as="sourcePoint" />
            <mxPoint x="510" y="360" as="targetPoint" />
            <Array as="points">
              <mxPoint x="510" y="410" />
              <mxPoint x="460" y="360" />
            </Array>
          </mxGeometry>
        </mxCell>
        <mxCell id="9Rtrq_ne1fXErQaXBdDn-59" value="" style="endArrow=classic;html=1;rounded=0;exitX=0.65;exitY=1.013;exitDx=0;exitDy=0;exitPerimeter=0;entryX=0.942;entryY=0.713;entryDx=0;entryDy=0;entryPerimeter=0;" edge="1" parent="WIyWlLk6GJQsqaUBKTNV-1" source="9Rtrq_ne1fXErQaXBdDn-9" target="9Rtrq_ne1fXErQaXBdDn-9">
          <mxGeometry width="50" height="50" relative="1" as="geometry">
            <mxPoint x="460" y="410" as="sourcePoint" />
            <mxPoint x="680" y="270" as="targetPoint" />
            <Array as="points">
              <mxPoint x="600" y="210" />
            </Array>
          </mxGeometry>
        </mxCell>
        <mxCell id="9Rtrq_ne1fXErQaXBdDn-60" value="timer7_flag =1&amp;nbsp;" style="text;html=1;align=center;verticalAlign=middle;whiteSpace=wrap;rounded=0;" vertex="1" parent="WIyWlLk6GJQsqaUBKTNV-1">
          <mxGeometry x="570" y="150" width="60" height="30" as="geometry" />
        </mxCell>
        <mxCell id="9Rtrq_ne1fXErQaXBdDn-74" value="" style="endArrow=classic;html=1;rounded=0;exitX=0.267;exitY=0.038;exitDx=0;exitDy=0;exitPerimeter=0;entryX=0.7;entryY=1.025;entryDx=0;entryDy=0;entryPerimeter=0;" edge="1" parent="WIyWlLk6GJQsqaUBKTNV-1" target="9Rtrq_ne1fXErQaXBdDn-12">
          <mxGeometry width="50" height="50" relative="1" as="geometry">
            <mxPoint x="769.04" y="393.03999999999996" as="sourcePoint" />
            <mxPoint x="510" y="360" as="targetPoint" />
          </mxGeometry>
        </mxCell>
        <mxCell id="9Rtrq_ne1fXErQaXBdDn-76" value="" style="ellipse;whiteSpace=wrap;html=1;" vertex="1" parent="WIyWlLk6GJQsqaUBKTNV-1">
          <mxGeometry x="1030" y="170" width="120" height="80" as="geometry" />
        </mxCell>
        <mxCell id="9Rtrq_ne1fXErQaXBdDn-78" value="BUTTON2&lt;div&gt;&lt;br&gt;&lt;/div&gt;" style="text;html=1;align=center;verticalAlign=middle;whiteSpace=wrap;rounded=0;" vertex="1" parent="WIyWlLk6GJQsqaUBKTNV-1">
          <mxGeometry x="980" y="90" width="60" height="30" as="geometry" />
        </mxCell>
        <mxCell id="9Rtrq_ne1fXErQaXBdDn-83" value="" style="endArrow=classic;html=1;rounded=0;exitX=0;exitY=0.375;exitDx=0;exitDy=0;exitPerimeter=0;" edge="1" parent="WIyWlLk6GJQsqaUBKTNV-1" target="9Rtrq_ne1fXErQaXBdDn-19">
          <mxGeometry width="50" height="50" relative="1" as="geometry">
            <mxPoint x="1030" y="360" as="sourcePoint" />
            <mxPoint x="510" y="360" as="targetPoint" />
          </mxGeometry>
        </mxCell>
        <mxCell id="9Rtrq_ne1fXErQaXBdDn-84" value="" style="endArrow=classic;html=1;rounded=0;exitX=0;exitY=0.625;exitDx=0;exitDy=0;exitPerimeter=0;entryX=0.967;entryY=0.788;entryDx=0;entryDy=0;entryPerimeter=0;" edge="1" parent="WIyWlLk6GJQsqaUBKTNV-1" source="9Rtrq_ne1fXErQaXBdDn-76" target="9Rtrq_ne1fXErQaXBdDn-19">
          <mxGeometry width="50" height="50" relative="1" as="geometry">
            <mxPoint x="460" y="410" as="sourcePoint" />
            <mxPoint x="510" y="360" as="targetPoint" />
          </mxGeometry>
        </mxCell>
        <mxCell id="9Rtrq_ne1fXErQaXBdDn-85" value="timer7_flag =1&amp;nbsp;" style="text;html=1;align=center;verticalAlign=middle;whiteSpace=wrap;rounded=0;" vertex="1" parent="WIyWlLk6GJQsqaUBKTNV-1">
          <mxGeometry x="980" y="155" width="60" height="30" as="geometry" />
        </mxCell>
        <mxCell id="9Rtrq_ne1fXErQaXBdDn-88" value="BUTTON2&lt;div&gt;&lt;br&gt;&lt;/div&gt;" style="text;html=1;align=center;verticalAlign=middle;whiteSpace=wrap;rounded=0;" vertex="1" parent="WIyWlLk6GJQsqaUBKTNV-1">
          <mxGeometry x="797" y="30" width="60" height="30" as="geometry" />
        </mxCell>
      </root>
    </mxGraphModel>
  </diagram>
</mxfile>
